<?xml version="1.0" encoding="UTF-8"?>
<svg width="128.905mm" height="129.679mm" version="1.1" viewBox="0 0 128.905 129.679" xmlns="http://www.w3.org/2000/svg" xmlns:cc="http://creativecommons.org/ns#" xmlns:dc="http://purl.org/dc/elements/1.1/" xmlns:rdf="http://www.w3.org/1999/02/22-rdf-syntax-ns#" xmlns:xlink="http://www.w3.org/1999/xlink">
 <defs>
  <linearGradient id="linearGradient152" x1="103.064" x2="117.053" y1="82.8187" y2="101.07" gradientTransform="matrix(6 0 0 6 -521.367 -411.558)" gradientUnits="userSpaceOnUse">
   <stop stop-color="#ff8080" offset="0"/>
   <stop stop-color="#ff004b" offset="1"/>
  </linearGradient>
 </defs>
 <metadata>
  <rdf:RDF>
   <cc:Work rdf:about="">
    <dc:format>image/svg+xml</dc:format>
    <dc:type rdf:resource="http://purl.org/dc/dcmitype/StillImage"/>
    <dc:title/>
   </cc:Work>
  </rdf:RDF>
 </metadata>
 <g transform="translate(-43.8134 -77.3564)">
  <circle cx="110.176" cy="143.954" r="49.1483" fill="#fff" stroke-width=".264583"/>
  <path d="m101.405 206.618c-28.1013-3.1836-50.5493-23.8211-56.4485-51.8958-1.52382-7.25205-1.52382-17.8774 0-25.1294 2.77926-13.2268 8.65286-24.0897 18.0646-33.4093 17.6773-17.5043 42.7113-23.2919 66.1655-15.2967 18.3022 6.23897 33.3184 21.1967 39.9716 39.816 4.74738 13.2857 4.74738 29.6238 0 42.9094-6.80256 19.0374-22.2598 34.1458-41.0831 40.156-9.45474 3.01884-17.5463 3.88344-26.6701 2.84988zm13.9256-25.0901c11.8672-2.51405 19.0945-10.9436 19.0945-22.2707 0-6.49592-2.9061-12.3149-8.32914-16.6776-1.6473-1.32524-6.4479-4.1698-10.668-6.32125-13.5698-6.91806-14.8447-8.08931-14.4172-13.2452 0.1758-2.12169 0.5472-3.05763 1.68282-4.24302 3.17322-3.31212 10.541-3.37406 20.1269-0.1692l5.92134 1.97971 2.62854-6.3335c3.11028-7.49445 3.43662-6.82055-4.54992-9.39597-15.0961-4.868-28.8652-3.22301-36.579 4.37011-7.67526 7.55518-7.90212 21.1275-0.4938 29.5439 2.70468 3.07265 7.28958 6.04814 16.1075 10.4533 10.2817 5.13642 12.9442 7.92897 12.0674 12.6571-1.43502 7.73899-11.9477 8.85823-27.5269 2.93066-3.36636-1.28082-6.26688-2.32877-6.44562-2.32877-0.1788 0-0.3252 3.42312-0.3252 7.60695v7.60695l1.39698 0.72212c1.86852 0.96583 8.07936 2.83173 11.1302 3.34378 4.21704 0.70779 15.3851 0.57426 19.1783-0.22938z" fill="url(#linearGradient152)" stroke-width=".508"/>
 </g>
</svg>
